<?xml version="1.0" encoding="UTF-8" standalone="no"?>
<!-- Created with Inkscape (http://www.inkscape.org/) -->

<svg
   width="1000"
   height="1000"
   viewBox="0 0 264.58333 264.58333"
   version="1.1"
   id="svg1"
   xml:space="preserve"
   inkscape:version="1.3.2 (091e20e, 2023-11-25, custom)"
   sodipodi:docname="drawing.svg"
   inkscape:export-filename="..\..\..\..\..\..\Desktop\drawing.png"
   inkscape:export-xdpi="480"
   inkscape:export-ydpi="480"
   xmlns:inkscape="http://www.inkscape.org/namespaces/inkscape"
   xmlns:sodipodi="http://sodipodi.sourceforge.net/DTD/sodipodi-0.dtd"
   xmlns="http://www.w3.org/2000/svg"
   xmlns:svg="http://www.w3.org/2000/svg"
   xmlns:rdf="http://www.w3.org/1999/02/22-rdf-syntax-ns#"
   xmlns:cc="http://creativecommons.org/ns#"
   xmlns:dc="http://purl.org/dc/elements/1.1/"><defs
     id="defs1"><inkscape:path-effect
       effect="powerclip"
       id="path-effect11"
       is_visible="true"
       lpeversion="1"
       inverse="true"
       flatten="false"
       hide_clip="false"
       message="Use fill-rule evenodd on &lt;b&gt;fill and stroke&lt;/b&gt; dialog if no flatten result after convert clip to paths." /><clipPath
       clipPathUnits="userSpaceOnUse"
       id="clipPath1"><rect
         style="fill:none;stroke:#000000;stroke-width:0.264583"
         id="rect2"
         width="176.89285"
         height="194.65775"
         x="44.223213"
         y="36.285713" /></clipPath><filter
       style="color-interpolation-filters:sRGB;"
       inkscape:label="Blur"
       id="filter62"
       x="-1.3531362"
       y="-0.83587378"
       width="3.7062723"
       height="2.6717476"><feGaussianBlur
         stdDeviation="2.5"
         result="blur"
         id="feGaussianBlur62" /></filter><filter
       inkscape:collect="always"
       style="color-interpolation-filters:sRGB"
       id="filter12"
       x="-0.17889568"
       y="-0.10293667"
       width="1.3577914"
       height="1.2058733"><feGaussianBlur
         inkscape:collect="always"
         stdDeviation="2.6620292"
         id="feGaussianBlur12" /></filter><filter
       inkscape:collect="always"
       style="color-interpolation-filters:sRGB"
       id="filter13"
       x="-1.4718518"
       y="-0.66182094"
       width="3.9437036"
       height="2.3236419"><feGaussianBlur
         inkscape:collect="always"
         stdDeviation="4.8199411"
         id="feGaussianBlur13" /></filter><filter
       inkscape:collect="always"
       style="color-interpolation-filters:sRGB"
       id="filter14"
       x="-1.3429309"
       y="-0.82956967"
       width="3.6858618"
       height="2.6591393"><feGaussianBlur
         inkscape:collect="always"
         stdDeviation="2.4811452"
         id="feGaussianBlur14" /></filter><clipPath
       clipPathUnits="userSpaceOnUse"
       id="clipPath17"><path
         id="path17"
         clip-path="none"
         style="display:inline;fill:#ff0025;fill-opacity:1;stroke:none;stroke-width:0.641773;stroke-dasharray:none;stroke-opacity:1"
         inkscape:label="red-wings"
         d="m 118.05274,55.612109 c -1.66592,0.1295 -3.87103,0.622408 -3.96461,0.643371 0.0143,0.730115 0.01,1.484863 -0.0496,1.952853 -0.14479,1.140568 -0.41392,1.68919 -0.64803,2.199349 -0.23411,0.510156 -3.40039,6.892332 -4.71289,8.780859 -1.3125,1.888527 -1.41641,2.121995 -2.46135,2.982764 -1.0449,0.860769 -2.60776,1.857089 -3.67316,2.29185 -1.0654,0.434763 -2.08818,0.721252 -2.84685,0.684713 -0.758666,-0.03654 -1.516483,-0.359217 -1.858285,-0.861965 -0.341797,-0.502743 -0.369067,-1.256144 -0.316778,-1.81746 0.05229,-0.561319 0.348988,-1.030941 0.743109,-1.566312 0.394118,-0.535366 1.323877,-1.263513 1.683099,-1.429888 0.359245,-0.16637 0.721725,-0.44622 2.099095,-0.655257 1.37737,-0.209034 1.72677,0.08046 2.54662,-0.124539 0.81985,-0.204999 0.90797,-0.377055 1.62057,-1.091406 0.7126,-0.714351 1.57065,-2.247905 2.28203,-3.406511 0.71138,-1.158602 1.52609,-2.586352 1.98438,-3.538802 0.45829,-0.952452 0.63484,-1.109659 0.85989,-2.116666 0.0848,-0.379331 0.11004,-1.126122 0.1385,-1.812809 -1.4405,0.288848 -3.39439,0.720691 -5.73609,1.348237 -5.01032,1.342711 -11.772702,4.29812 -16.122013,6.529319 -1.321882,0.678127 -2.716445,1.46558 -4.033345,2.236555 a 94.188231,98.562799 0 0 0 -47.483405,85.028916 94.188231,98.562799 0 0 0 87.887143,98.09169 l 4.09535,-127.08785 A 23.746361,23.746361 0 0 1 108.54532,99.417186 23.746361,23.746361 0 0 1 130.67317,75.88374 c 0.0687,-3.440065 0.17469,-11.243252 -0.2465,-12.924277 -0.54053,-2.157359 -1.37817,-3.257798 -2.23759,-4.196127 -0.85942,-0.938321 -2.03339,-1.941277 -3.76359,-2.531626 -1.7302,-0.590352 -4.67131,-0.751861 -6.37274,-0.619601 z m 28.47785,0 c -1.70143,-0.13226 -4.64254,0.02924 -6.37274,0.619601 -1.7302,0.590351 -2.90417,1.593302 -3.76359,2.531626 -0.85942,0.938329 -1.69706,2.038768 -2.23759,4.196127 -0.42119,1.681028 -0.31519,9.484209 -0.2465,12.924277 a 23.746361,23.746361 0 0 1 22.12785,23.533446 23.746361,23.746361 0 0 1 -21.5408,23.455934 l 4.10259,127.31006 a 94.188231,98.562799 0 0 0 87.8799,-98.3139 94.188231,98.562799 0 0 0 -46.95785,-84.921945 c -1.41823,-0.833729 -2.95035,-1.702396 -4.39353,-2.442747 -4.34932,-2.2312 -11.27653,-5.087385 -16.28686,-6.430098 -2.33636,-0.626112 -4.28662,-1.057298 -5.72627,-1.34617 0.0276,0.67927 0.0432,1.430562 0.12816,1.810742 0.22505,1.007007 0.4016,1.164214 0.85989,2.116666 0.45829,0.952453 1.273,2.3802 1.98438,3.538802 0.71138,1.158606 1.56943,2.69216 2.28203,3.406511 0.7126,0.714351 0.80072,0.886407 1.62057,1.091406 0.81985,0.204999 1.16925,-0.0845 2.54662,0.124539 1.37737,0.209037 1.73986,0.488887 2.09909,0.655257 0.35923,0.166375 1.28901,0.894519 1.6831,1.429888 0.39412,0.535371 0.69082,1.004993 0.74311,1.566312 0.0523,0.561319 0.0251,1.314717 -0.31677,1.81746 -0.3418,0.502748 -1.09963,0.82542 -1.85829,0.861965 -0.75867,0.03654 -1.78145,-0.24995 -2.84685,-0.684713 -1.0654,-0.434761 -2.62825,-1.431081 -3.67316,-2.29185 -1.04494,-0.860769 -1.14885,-1.094235 -2.46135,-2.982764 -1.3125,-1.88853 -4.47878,-8.270703 -4.71289,-8.780859 -0.23411,-0.510159 -0.50324,-1.058778 -0.64803,-2.199349 -0.0594,-0.46799 -0.0639,-1.222738 -0.0496,-1.952853 -0.0936,-0.02096 -2.29869,-0.513871 -3.96461,-0.643371 z M 76.441844,107.46166 a 14.602248,18.006678 19.283752 0 1 4.156337,0.51728 14.602248,18.006678 19.283752 0 1 8.43566,21.43641 14.602248,18.006678 19.283752 0 1 -19.480982,12.8354 14.602248,18.006678 19.283752 0 1 -8.43566,-21.43642 14.602248,18.006678 19.283752 0 1 15.324645,-13.35267 z m 111.699646,0 a 18.006678,14.602248 70.716248 0 1 15.32464,13.35267 18.006678,14.602248 70.716248 0 1 -8.43566,21.43642 18.006678,14.602248 70.716248 0 1 -19.48098,-12.8354 18.006678,14.602248 70.716248 0 1 8.43566,-21.43641 18.006678,14.602248 70.716248 0 1 4.15634,-0.51728 z m -87.69801,43.75288 a 14.33567,14.33567 0 0 1 14.33556,14.33556 14.33567,14.33567 0 0 1 -14.33556,14.33556 14.33567,14.33567 0 0 1 -14.336076,-14.33556 14.33567,14.33567 0 0 1 14.336076,-14.33556 z m 63.69637,0 a 14.33567,14.33567 0 0 1 14.33608,14.33556 14.33567,14.33567 0 0 1 -14.33608,14.33556 14.33567,14.33567 0 0 1 -14.33556,-14.33556 14.33567,14.33567 0 0 1 14.33556,-14.33556 z m -81.073604,56.34747 a 12.855269,10.429164 48.492133 0 1 11.821501,6.54843 12.855269,10.429164 48.492133 0 1 -1.89239,15.89722 12.855269,10.429164 48.492133 0 1 -16.234669,-5.30665 12.855269,10.429164 48.492133 0 1 1.89239,-15.89722 12.855269,10.429164 48.492133 0 1 4.413168,-1.24178 z m 98.450834,0 a 10.429164,12.855269 41.507867 0 1 4.41317,1.24178 10.429164,12.855269 41.507867 0 1 1.89239,15.89722 10.429164,12.855269 41.507867 0 1 -16.23467,5.30665 10.429164,12.855269 41.507867 0 1 -1.89239,-15.89722 10.429164,12.855269 41.507867 0 1 11.8215,-6.54843 z" /></clipPath><clipPath
       clipPathUnits="userSpaceOnUse"
       id="clipPath16"><path
         id="path18"
         style="display:inline;fill:#000000;stroke-width:0.46236"
         d="M 213.78715,-83.643662 212.0425,-84.526 c 0,0 -8.00357,-2.629293 -12.35116,-3.370524 -4.34761,-0.741219 -11.14721,-0.587931 -16.44546,0.382985 -5.29826,0.970901 -10.21368,2.538757 -15.09616,4.943862 -4.88249,2.405106 -12.62022,7.792859 -12.62022,7.792859 0,0 -8.6899,0.07296 -13.28335,1.38186 -4.59344,1.30892 -9.35392,3.432144 -13.19648,5.899133 -3.84258,2.466984 -7.56417,5.175989 -10.19487,7.560079 -2.6307,2.384094 -4.66159,4.551943 -4.66159,4.551943 l 47.33216,18.786175 10.32743,-14.345676 23.44913,-19.57494 z m -91.68922,99.186034 -2.0015,-0.604508 c 0,0 -7.26325,-3.430132 -10.27946,-5.6116083 -3.01622,-2.181474 -5.95819,-6.2012143 -7.09892,-9.72775544 C 101.5773,-3.9280469 101.4213,-7.5087516 102.413,-11.458124 c 0.99169,-3.949364 4.69519,-10.938306 4.69519,-10.938306 0,0 -3.92617,-5.080286 -4.28329,-8.354076 -0.35704,-3.273804 0.30985,-7.021747 1.86688,-10.395866 1.55703,-3.374115 3.49746,-6.790065 5.50368,-9.422013 2.00622,-2.631952 3.99775,-4.815418 3.99775,-4.815418 l 47.33216,18.786175 -14.62029,12.641837 -15.61574,22.6840091 z"
         inkscape:label="black-shape" /></clipPath><clipPath
       clipPathUnits="userSpaceOnUse"
       id="clipPath18"><path
         id="path19"
         style="display:inline;fill:#000000;stroke-width:0.490227"
         d="m 209.67768,-74.039814 -1.41547,-1.543884 c 0,0 -6.76695,-5.415502 -10.5753,-7.54981 -3.80836,-2.134297 -10.01774,-3.929723 -15.02031,-4.328018 -5.00257,-0.398308 -9.77233,0.01619 -14.67362,1.424253 -4.9013,1.408057 -12.97283,5.491937 -12.97283,5.491937 0,0 -7.91189,-2.439054 -12.33907,-2.235331 -4.42719,0.203723 -9.16323,1.315955 -13.13134,3.098873 -3.96811,1.782927 -7.87293,3.885448 -10.72363,5.923057 -2.85072,2.037602 -5.11459,3.99533 -5.11459,3.99533 l 39.39469,35.830799 12.1528,-13.859402 25.08698,-16.192742 z m -102.46087,89.930105 -1.70247,-1.291972 c 0,0 -5.939671,-6.1416069 -8.260231,-9.5817587 -2.320558,-3.4401498 -4.219125,-9.0191813 -4.575746,-13.4952384 -0.356618,-4.4760639 0.19217,-8.7296619 1.855154,-13.0830869 1.662982,-4.353419 6.376793,-11.491251 6.376793,-11.491251 0,0 -2.588498,-7.1114 -2.281672,-11.062724 0.306828,-3.951343 1.635812,-8.162402 3.701662,-11.675489 2.06585,-3.513094 4.48821,-6.963964 6.81916,-9.474307 2.33096,-2.51034 4.56206,-4.497871 4.56206,-4.497871 l 39.39469,35.8308 -15.72576,10.609675 -18.56725,22.122657 z"
         inkscape:label="black-shape" /></clipPath></defs><sodipodi:namedview
     id="base"
     pagecolor="#4f4f4f"
     bordercolor="#000000"
     borderopacity="0.3"
     inkscape:pageopacity="0.0"
     inkscape:pageshadow="2"
     inkscape:zoom="0.70710678"
     inkscape:cx="343.6539"
     inkscape:cy="509.82399"
     inkscape:document-units="px"
     inkscape:showpageshadow="0"
     inkscape:pagecheckerboard="0"
     inkscape:deskcolor="#505050"
     inkscape:window-width="1920"
     inkscape:window-height="1017"
     inkscape:window-x="-8"
     inkscape:window-y="-8"
     inkscape:window-maximized="1"
     inkscape:current-layer="layer6" /><metadata
     id="metadata1"><rdf:RDF><cc:Work
         rdf:about=""><dc:format>image/svg+xml</dc:format><dc:type
           rdf:resource="http://purl.org/dc/dcmitype/StillImage" /></cc:Work></rdf:RDF></metadata><g
     inkscape:groupmode="layer"
     id="layer2"
     inkscape:label="Legs"
     style="display:inline"
     sodipodi:insensitive="true"><path
       style="display:inline;fill:#000000;fill-opacity:1;stroke:none;stroke-width:0.396875;stroke-dasharray:none"
       d="m 69.077265,75.096903 c 0,0 -14.440185,-8.038118 -17.861491,-8.171495 -3.421306,-0.133377 -5.662359,1.724493 -5.95026,1.942368 -0.287901,0.217875 -2.189102,1.91335 -2.341594,3.609157 -0.152492,1.695807 0.337822,2.804144 1.259457,3.975466 0.921634,1.171322 2.842562,1.990224 4.472255,2.102001 1.629693,0.111777 4.035441,-0.714989 4.772645,-1.063058 0.737203,-0.348069 2.682892,-1.285782 4.373737,-1.291205 1.690845,-0.0054 7.641866,2.694194 7.641866,2.694194 z"
       id="path3"
       sodipodi:nodetypes="czzzzzzzcc"
       inkscape:label="front-left"
       sodipodi:insensitive="true" /><path
       style="display:inline;fill:#000000;fill-opacity:1;stroke:none;stroke-width:0.396875;stroke-dasharray:none"
       d="m 195.50605,75.096903 c 0,0 14.44019,-8.038118 17.8615,-8.171495 3.4213,-0.133377 5.66235,1.724493 5.95026,1.942368 0.2879,0.217875 2.1891,1.91335 2.34159,3.609157 0.15249,1.695807 -0.33782,2.804144 -1.25946,3.975466 -0.92163,1.171322 -2.84256,1.990224 -4.47225,2.102001 -1.6297,0.111777 -4.03544,-0.714989 -4.77265,-1.063058 -0.7372,-0.348069 -2.68289,-1.285782 -4.37373,-1.291205 -1.69085,-0.0054 -7.64187,2.694194 -7.64187,2.694194 z"
       id="path3-3"
       sodipodi:nodetypes="czzzzzzzcc"
       inkscape:label="front-right"
       sodipodi:insensitive="true" /><path
       style="fill:#000000;fill-opacity:1;stroke:none;stroke-width:0.396875;stroke-dasharray:none"
       d="m 53.696717,213.56385 c 0,0 -10.898921,9.41319 -11.975233,10.67052 -1.076312,1.25733 -1.915297,2.33132 -2.248958,3.9026 -0.333661,1.57128 -0.07534,3.6859 0.248047,5.35781 0.323392,1.67192 1.480029,3.60627 3.770312,4.17547 1.480523,0.30151 5.167242,-0.26235 6.730339,-4.17546 0.780388,-1.95365 -0.524337,-7.48384 1.091405,-9.92188 1.615743,-2.43803 5.505668,-5.62073 5.505668,-5.62073 z"
       id="path6"
       sodipodi:nodetypes="czzzzzzcc"
       inkscape:label="rear-left"
       sodipodi:insensitive="true" /><path
       style="display:inline;fill:#000000;fill-opacity:1;stroke:none;stroke-width:0.396875;stroke-dasharray:none"
       d="m 210.8866,213.56385 c 0,0 10.89892,9.41319 11.97524,10.67052 1.07631,1.25733 1.91529,2.33132 2.24895,3.9026 0.33366,1.57128 0.0753,3.6859 -0.24804,5.35781 -0.3234,1.67192 -1.48003,3.60627 -3.77032,4.17547 -1.48052,0.30151 -5.16724,-0.26235 -6.73033,-4.17546 -0.78039,-1.95365 0.52433,-7.48384 -1.09141,-9.92188 -1.61574,-2.43803 -5.50567,-5.62073 -5.50567,-5.62073 z"
       id="path6-8"
       sodipodi:nodetypes="czzzzzzcc"
       inkscape:label="rear-right"
       sodipodi:insensitive="true" /><path
       style="fill:#000000;fill-opacity:1;stroke:none;stroke-width:0.396875;stroke-dasharray:none"
       d="m 225.22656,137.98021 c 0,0 16.83227,6.5321 18.79676,7.76978 1.96449,1.23767 2.6179,2.36078 3.30197,3.95138 0.68408,1.5906 0.94686,4.49177 0.78773,5.61731 -0.15913,1.12554 -0.60522,2.74089 -1.82376,3.41762 -1.21854,0.67673 -2.96104,0.73429 -3.72309,0.58465 -0.76204,-0.14964 -3.43151,-0.78217 -4.75723,-2.37343 -1.32572,-1.59126 -2.07092,-6.72881 -4.34723,-8.81393 -2.2763,-2.08512 -7.4414,-2.84427 -7.4414,-2.84427 z"
       id="path7"
       sodipodi:nodetypes="czzzzzzzcc"
       inkscape:label="mid-right"
       sodipodi:insensitive="true" /><path
       style="display:inline;fill:#000000;fill-opacity:1;stroke:none;stroke-width:0.396875;stroke-dasharray:none"
       d="m 39.35676,137.98021 c 0,0 -16.83227,6.5321 -18.79676,7.76978 -1.96449,1.23767 -2.6179,2.36078 -3.30197,3.95138 -0.68408,1.5906 -0.94686,4.49177 -0.78773,5.61731 0.15913,1.12554 0.60522,2.74089 1.82376,3.41762 1.21854,0.67673 2.96104,0.73429 3.72309,0.58465 0.76204,-0.14964 3.43151,-0.78217 4.75723,-2.37343 1.32572,-1.59126 2.07092,-6.72881 4.34723,-8.81393 2.2763,-2.08512 7.4414,-2.84427 7.4414,-2.84427 z"
       id="path7-5"
       sodipodi:nodetypes="czzzzzzzcc"
       inkscape:label="mid-left"
       sodipodi:insensitive="true" /></g><g
     inkscape:groupmode="layer"
     id="layer1"
     inkscape:label="Body"
     style="display:inline"
     sodipodi:insensitive="true"><ellipse
       style="display:inline;fill:#000000;fill-opacity:1;stroke:none;stroke-width:0.639857;stroke-dasharray:none"
       id="path5"
       cx="132.29166"
       cy="153.55302"
       rx="97.499367"
       ry="106.50023"
       inkscape:label="black-body"
       sodipodi:insensitive="true" /></g><g
     inkscape:groupmode="layer"
     id="layer3"
     inkscape:label="Wings"
     style="display:inline"
     sodipodi:insensitive="true"><path
       id="path8"
       clip-path="none"
       style="display:inline;fill:#ff0025;fill-opacity:1;stroke:none;stroke-width:0.641774;stroke-dasharray:none;stroke-opacity:1"
       inkscape:label="red-wings"
       d="m 118.05274,55.612109 c -1.66592,0.1295 -3.87103,0.622407 -3.96461,0.643371 0.0143,0.730116 0.01,1.484864 -0.0496,1.952853 -0.14479,1.140569 -0.41392,1.689189 -0.64803,2.199349 -0.23411,0.510156 -3.40039,6.892331 -4.71289,8.780859 -1.3125,1.888528 -1.41641,2.121996 -2.46135,2.982763 -1.0449,0.860771 -2.60776,1.85709 -3.67316,2.29185 -1.0654,0.434764 -2.08818,0.721253 -2.846851,0.684713 -0.758665,-0.03654 -1.516481,-0.359216 -1.858285,-0.861963 -0.341795,-0.502743 -0.369066,-1.256144 -0.316776,-1.81746 0.05229,-0.56132 0.348987,-1.030942 0.743107,-1.566313 0.39412,-0.535367 1.323877,-1.263513 1.683101,-1.429887 0.359244,-0.16637 0.721724,-0.446222 2.099094,-0.655257 1.37737,-0.209035 1.72677,0.08046 2.54662,-0.12454 0.81985,-0.204998 0.90797,-0.377055 1.62057,-1.091406 0.7126,-0.714351 1.57065,-2.247906 2.28203,-3.406511 0.71138,-1.158601 1.52609,-2.586351 1.98438,-3.538802 0.45829,-0.952451 0.63484,-1.10966 0.85989,-2.116666 0.0848,-0.37933 0.11004,-1.126122 0.1385,-1.812809 -1.4405,0.288849 -3.39439,0.720691 -5.73609,1.348238 -5.01032,1.342709 -11.772703,4.298118 -16.122012,6.529317 -1.321882,0.678127 -2.716447,1.465581 -4.033345,2.236556 a 94.188232,98.562798 0 0 0 -47.483406,85.028916 94.188232,98.562798 0 0 0 87.887143,98.09169 l 4.09535,-127.08785 a 23.746361,23.746361 0 0 1 -21.5408,-23.455934 23.746361,23.746361 0 0 1 22.12785,-23.533447 c 0.0687,-3.440063 0.17469,-11.243251 -0.2465,-12.924275 -0.54053,-2.157359 -1.37817,-3.257798 -2.23759,-4.196127 -0.85942,-0.938323 -2.03339,-1.941277 -3.76359,-2.531628 -1.7302,-0.590351 -4.67131,-0.751861 -6.37274,-0.6196 z m 28.47785,0 c -1.70143,-0.132261 -4.64254,0.02924 -6.37274,0.6196 -1.7302,0.590352 -2.90417,1.593304 -3.76359,2.531628 -0.85942,0.938329 -1.69706,2.038766 -2.23759,4.196127 -0.42119,1.681026 -0.31519,9.484209 -0.2465,12.924275 a 23.746361,23.746361 0 0 1 22.12785,23.533447 23.746361,23.746361 0 0 1 -21.5408,23.455934 l 4.10259,127.31006 a 94.188232,98.562798 0 0 0 87.8799,-98.3139 94.188232,98.562798 0 0 0 -46.95785,-84.921946 c -1.41823,-0.833729 -2.95035,-1.702394 -4.39353,-2.442745 -4.34932,-2.231201 -11.27653,-5.087387 -16.28686,-6.430098 -2.33636,-0.626114 -4.28662,-1.057299 -5.72627,-1.346171 0.0276,0.679269 0.0432,1.430562 0.12816,1.810742 0.22505,1.007007 0.4016,1.164214 0.85989,2.116666 0.45829,0.952452 1.273,2.380199 1.98438,3.538802 0.71138,1.158606 1.56943,2.692159 2.28203,3.406511 0.7126,0.714352 0.80072,0.886408 1.62057,1.091406 0.81985,0.204998 1.16925,-0.0845 2.54662,0.12454 1.37737,0.209035 1.73986,0.488886 2.09909,0.655257 0.35923,0.166374 1.28901,0.894519 1.6831,1.429887 0.39412,0.535371 0.69082,1.004993 0.74311,1.566313 0.0523,0.561317 0.0251,1.314716 -0.31677,1.81746 -0.3418,0.502747 -1.09963,0.825419 -1.85829,0.861963 -0.75867,0.03654 -1.78145,-0.249949 -2.84685,-0.684713 -1.0654,-0.434761 -2.62825,-1.431079 -3.67316,-2.29185 -1.04494,-0.860768 -1.14885,-1.094233 -2.46135,-2.982763 -1.3125,-1.88853 -4.47878,-8.270702 -4.71289,-8.780859 -0.23411,-0.51016 -0.50324,-1.058778 -0.64803,-2.199349 -0.0594,-0.467989 -0.0639,-1.222737 -0.0496,-1.952853 -0.0936,-0.02096 -2.29869,-0.513871 -3.96461,-0.643371 z M 76.441845,107.46166 a 14.602248,18.006678 19.283752 0 1 4.156335,0.51728 14.602248,18.006678 19.283752 0 1 8.435661,21.43641 14.602248,18.006678 19.283752 0 1 -19.480981,12.8354 14.602248,18.006678 19.283752 0 1 -8.435661,-21.43642 14.602248,18.006678 19.283752 0 1 15.324646,-13.35267 z m 111.699645,0 a 18.006678,14.602248 70.716248 0 1 15.32464,13.35267 18.006678,14.602248 70.716248 0 1 -8.43566,21.43642 18.006678,14.602248 70.716248 0 1 -19.48098,-12.8354 18.006678,14.602248 70.716248 0 1 8.43566,-21.43641 18.006678,14.602248 70.716248 0 1 4.15634,-0.51728 z m -87.69801,43.75288 a 14.33567,14.33567 0 0 1 14.33556,14.33556 14.33567,14.33567 0 0 1 -14.33556,14.33556 14.33567,14.33567 0 0 1 -14.336075,-14.33556 14.33567,14.33567 0 0 1 14.336075,-14.33556 z m 63.69637,0 a 14.33567,14.33567 0 0 1 14.33608,14.33556 14.33567,14.33567 0 0 1 -14.33608,14.33556 14.33567,14.33567 0 0 1 -14.33556,-14.33556 14.33567,14.33567 0 0 1 14.33556,-14.33556 z m -81.073603,56.34747 a 12.855269,10.429164 48.492133 0 1 11.8215,6.54843 12.855269,10.429164 48.492133 0 1 -1.892391,15.89722 12.855269,10.429164 48.492133 0 1 -16.234668,-5.30665 12.855269,10.429164 48.492133 0 1 1.892391,-15.89722 12.855269,10.429164 48.492133 0 1 4.413168,-1.24178 z m 98.450833,0 a 10.429164,12.855269 41.507867 0 1 4.41317,1.24178 10.429164,12.855269 41.507867 0 1 1.89239,15.89722 10.429164,12.855269 41.507867 0 1 -16.23467,5.30665 10.429164,12.855269 41.507867 0 1 -1.89239,-15.89722 10.429164,12.855269 41.507867 0 1 11.8215,-6.54843 z"
       sodipodi:insensitive="true" /></g><g
     inkscape:groupmode="layer"
     id="layer4"
     inkscape:label="Head"
     style="display:inline"
     sodipodi:insensitive="true"><path
       id="path2-2"
       style="display:inline;fill:#000000;stroke-width:0.396875"
       d="m 179.55152,62.768249 0.13238,-1.979552 c 0,0 -0.38158,-8.067348 -1.06782,-11.958555 -0.68625,-3.891207 -2.6746,-9.038885 -4.81754,-12.441397 -2.14293,-3.402513 -4.5961,-6.082371 -7.62386,-8.138357 -3.02776,-2.055986 -8.92497,-4.187771 -8.92497,-4.187771 0,0 -2.4554,-6.666623 -4.63895,-9.282613 -2.18356,-2.615989 -4.98104,-4.779104 -7.76419,-5.9868364 -2.78315,-1.2077324 -5.70155,-2.1489374 -8.09158,-2.4789254 -2.39003,-0.3299869 -4.46333,-0.3507909 -4.46333,-0.3507909 V 55.986285 l 12.85893,-2.26845 20.13542,4.139335 z m -94.519721,0 -0.132381,-1.979552 c 0,0 0.381579,-8.067348 1.067825,-11.958555 0.686246,-3.891207 2.674599,-9.038885 4.817532,-12.441397 2.142933,-3.402513 4.5961,-6.082371 7.623864,-8.138357 3.027761,-2.055986 8.924971,-4.187771 8.924971,-4.187771 0,0 2.4554,-6.666623 4.63895,-9.282613 2.18356,-2.615989 4.98104,-4.779104 7.76419,-5.9868366 2.78315,-1.2077326 5.70155,-2.1489375 8.09158,-2.4789249 2.39003,-0.3299873 4.46333,-0.3507912 4.46333,-0.3507912 V 55.986285 l -12.85893,-2.26845 -20.135419,4.139335 z"
       inkscape:label="black-shape"
       sodipodi:insensitive="true" /><ellipse
       style="display:inline;fill:#ffffff;fill-opacity:1;stroke-width:1.4187"
       id="path2"
       cx="121.55671"
       cy="-29.481112"
       rx="9.2737722"
       ry="11.425755"
       transform="matrix(0.84446577,0.53560952,-0.49548153,0.86861847,0,0)"
       inkscape:label="eye-white-left"
       sodipodi:insensitive="true" /><ellipse
       style="display:inline;fill:#ffffff;fill-opacity:1;stroke-width:1.4187"
       id="path2-7"
       cx="-108.51759"
       cy="112.38784"
       rx="9.2737722"
       ry="11.425755"
       transform="matrix(-0.84446577,0.53560952,0.49548153,0.86861847,0,0)"
       inkscape:label="eye-white-right"
       sodipodi:insensitive="true" /><ellipse
       style="display:inline;fill:#000000;fill-opacity:1;stroke-width:0.506486"
       id="path4"
       cx="120.47948"
       cy="-26.843563"
       rx="5.3003693"
       ry="6.7135782"
       transform="matrix(0.87299372,0.48773144,-0.51535489,0.85697686,0,0)"
       inkscape:label="eye-black-left"
       sodipodi:insensitive="true" /><ellipse
       style="display:inline;fill:#000000;fill-opacity:1;stroke-width:0.506486"
       id="path4-5"
       cx="-106.37796"
       cy="102.26786"
       rx="5.3003693"
       ry="6.7135782"
       transform="matrix(-0.87299372,0.48773144,0.51535489,0.85697686,0,0)"
       inkscape:label="eye-black-right"
       sodipodi:insensitive="true" /></g><g
     inkscape:groupmode="layer"
     id="layer5"
     inkscape:label="Mouth"
     style="display:inline"
     sodipodi:insensitive="true"><path
       style="display:inline;fill:#ffffff;fill-opacity:1;stroke-width:0.396875"
       d="m 119.32708,20.769791 c 0.14688,0.714946 0.50313,1.062881 0.92604,0.926042 0.42291,-0.136839 3.82537,-5.129341 5.11261,-6.25978 1.28724,-1.130439 1.90404,-1.387157 1.90404,-1.387157 0,0 -0.87391,-0.586534 -1.25464,-0.976282 -0.38073,-0.389748 -1.02147,-1.254721 -1.02147,-1.254721 0,0 -3.34291,3.501959 -4.23876,5.049294 -0.89585,1.547335 -1.5747,3.187658 -1.42782,3.902604 z"
       id="path62"
       sodipodi:nodetypes="zzzczczz"
       inkscape:label="mouth-left"
       sodipodi:insensitive="true" /><path
       style="display:inline;fill:#ffffff;fill-opacity:1;stroke-width:0.396875"
       d="m 136.85538,16.104849 c 0,0 3.00029,1.744413 4.03524,2.746713 1.03496,1.002301 2.18927,1.951929 1.95131,2.877344 -0.23796,0.925416 -1.70285,0.717763 -1.57097,1.141016 0.13188,0.423253 2.53052,0.489789 3.6711,0.115755 1.14058,-0.374034 2.08055,-1.723414 2.56315,-2.480469 0.4826,-0.757055 0.54171,-1.717886 0.57192,-2.643542 0.0302,-0.925657 -0.1934,-2.006751 -0.6344,-2.057169 -0.44101,-0.05042 -0.81576,1.056528 -1.062,1.790294 -0.24624,0.733766 -0.43594,1.495324 -0.81749,1.953309 -0.38155,0.457985 -0.54664,0.579281 -0.93303,0.63406 -0.38639,0.05478 -0.89532,-1.793619 -0.89532,-1.793619 0,0 -1.04623,-2.294982 -1.91823,-3.555338 -0.87199,-1.260355 -2.20613,-2.950171 -3.36286,-4.046427 -1.15674,-1.0962561 -2.20175,-1.3376088 -2.20175,-1.3376088 0,0 1.40402,1.7862288 1.74469,2.7051298 0.34067,0.918901 0.69053,1.904053 0.54571,2.480468 -0.14482,0.576415 -0.27233,0.699733 -0.59532,0.926042 -0.32299,0.226309 -1.09175,0.544042 -1.09175,0.544042 z"
       id="path63"
       sodipodi:nodetypes="czzzzzzzzzzczzczzzc"
       inkscape:label="mouth-right"
       sodipodi:insensitive="true" /><path
       style="fill:#df2626;fill-opacity:1;stroke:#000000;stroke-width:1.1622;stroke-dasharray:none;stroke-opacity:1"
       d="m 131.92093,14.603754 c -0.23787,0.157701 -3.0886,-0.428357 -4.25931,-1.327907 -1.17073,-0.899552 -1.8149,-1.602732 -2.36196,-3.4221339 -0.54705,-1.819402 -0.82584,-5.3488447 1.23449,-6.3241946 2.06033,-0.9753498 4.85131,1.8469774 6.81491,3.7582243 1.96361,1.9112471 5.1088,6.3060452 4.38461,7.4663392 -0.72419,1.160294 -3.89082,-0.607913 -4.91075,-1.453181 -1.01995,-0.845267 -2.12967,-3.3824012 -2.12967,-3.3824012 l -1.0523,0.2004392 c 0,0 0.30903,1.315137 0.72659,2.129661 0.41755,0.814524 1.79127,2.197451 1.55339,2.355154 z"
       id="path10"
       sodipodi:nodetypes="zzzzzzzcczz"
       inkscape:label="tongue"
       sodipodi:insensitive="true" /></g><g
     inkscape:groupmode="layer"
     id="layer6"
     inkscape:label="Light"
     style="display:inline"
     sodipodi:insensitive="true"><path
       style="display:inline;opacity:1;mix-blend-mode:normal;fill:#ffffff;fill-opacity:1;stroke-width:0.396875;filter:url(#filter12)"
       d="M 56.123847,102.99897 C 64.712245,88.918208 79.521418,75.587784 81.26036,77.264865 82.999302,78.941946 71.176141,87.112183 60.224233,106.53759 49.272325,125.963 49.131476,139.42388 46.544064,139.1846 c -2.587412,-0.23928 0.991385,-22.10487 9.579783,-36.18563 z"
       id="path9"
       sodipodi:nodetypes="zzzzz"
       inkscape:label="wing"
       clip-path="url(#clipPath17)"
       sodipodi:insensitive="true" /><ellipse
       style="display:inline;opacity:1;mix-blend-mode:normal;fill:#ffffff;fill-opacity:1;stroke:none;stroke-width:2.83951;stroke-dasharray:none;stroke-opacity:1;filter:url(#filter13)"
       id="path11"
       cx="104.75865"
       cy="-9.6627312"
       rx="3.9296954"
       ry="8.7394171"
       transform="matrix(0.46946298,0.62358525,-0.51615791,0.71047491,42.899377,-15.380226)"
       inkscape:label="head"
       clip-path="url(#clipPath18)"
       sodipodi:insensitive="true" /><ellipse
       style="display:inline;mix-blend-mode:normal;fill:#ffffff;fill-opacity:1;stroke:none;stroke-width:1.28623;stroke-dasharray:none;stroke-opacity:1;filter:url(#filter14)"
       id="path12"
       cx="108.98547"
       cy="-31.863972"
       rx="2.2170718"
       ry="3.5890586"
       transform="matrix(0.2767048,0.77316931,-0.69716343,0.71473073,62.082287,-42.74273)"
       inkscape:label="mouth"
       clip-path="url(#clipPath16)"
       sodipodi:insensitive="true" /></g></svg>
